# xmcd
#
# Track frame offsets:
#	150
#	16213
#	30045
#	42540
#	62965
#	74718
#	86993
#	97043
#	118738
#	130325
#	141413
#	153123
#
# Disc length: 2233 seconds
# Revision: 6
# Processed by: cddbd v1.5.2PL0 Copyright (c) Steve Scherf et al.
# Submitted via: dBpowerAMP V12.0
#
DISCID=ac08b70c
DTITLE=Emmylou Harris - Angel Band
DYEAR=1987
DGENRE=Country
TTITLE0=Where Could I Go But to the Lord
TTITLE1=Angel Band
TTITLE2=If I Be Lifted Up
TTITLE3=Precious Memories
TTITLE4=Bright Morning Stars
TTITLE5=When He Calls
TTITLE6=We Shall Rise
TTITLE7=Drifting Too Far
TTITLE8=Who Will Sing for Me?
TTITLE9=Someday My Ship Will Sail
TTITLE10=The Other Side of Life
TTITLE11=When They Ring Those Golden Bells
EXTD=
EXTT0=
EXTT1=
EXTT2=
EXTT3=
EXTT4=
EXTT5=
EXTT6=
EXTT7=
EXTT8=
EXTT9=
EXTT10=
EXTT11=
PLAYORDER=
